<svg width="327" height="106" viewBox="0 0 327 106" fill="none" xmlns="http://www.w3.org/2000/svg">
<path d="M27.4375 75C27.5208 67.75 26 62.7917 22.875 60.125C21.625 59 20.1042 58.4375 18.3125 58.4375C16.5208 58.4375 15.0417 58.7708 13.875 59.4375C12.7083 60.1042 11.6667 61 10.75 62.125C9.875 63.25 9.125 64.5417 8.5 66C7.91667 67.4167 7.4375 68.875 7.0625 70.375C6.6875 71.9583 6.41667 73.5208 6.25 75.0625L14.8125 75.4375C20.3958 75.4375 24.6042 75.2917 27.4375 75ZM6 80.4375C6.08333 86.1875 7.125 90.5833 9.125 93.625C11.2917 96.875 14.3542 98.5 18.3125 98.5C21.9375 98.5 24.5833 96.7083 26.25 93.125C27.2917 90.7917 28.5833 89.625 30.125 89.625C30.8333 89.625 31.4167 89.8542 31.875 90.3125C32.375 90.7708 32.6042 91.5833 32.5625 92.75C32.5208 93.875 32.1042 95.1042 31.3125 96.4375C30.5625 97.7708 29.5 98.9583 28.125 100C25.125 102.333 21.5208 103.5 17.3125 103.5C12.7708 103.5 8.85417 101.562 5.5625 97.6875C2.10417 93.6042 0.375 88.75 0.375 83.125C0.375 77.5 0.854167 72.9375 1.8125 69.4375C2.8125 65.8958 4.125 62.9583 5.75 60.625C8.91667 55.9167 12.875 53.5625 17.625 53.5625C23.7083 53.5625 27.9792 55.9583 30.4375 60.75C32.1458 64.0833 33.0625 68.9792 33.1875 75.4375C33.2292 77.2708 32.9375 78.5 32.3125 79.125C31.6875 79.75 30.4167 80.0625 28.5 80.0625L6 80.4375ZM55.75 35.75C56.0417 36.4167 56.1458 37.2292 56.0625 38.1875C56.0208 39.1042 55.8125 39.8958 55.4375 40.5625C55.0625 41.2292 54.625 41.7708 54.125 42.1875C53.1667 42.9375 52.1875 43.3125 51.1875 43.3125C50.1875 43.3125 49.3958 43.2083 48.8125 43C48.2292 42.75 47.7083 42.4167 47.25 42C46.1667 41 45.625 39.6875 45.625 38.0625C45.625 36.4375 46.0417 35.2708 46.875 34.5625C48.25 33.3542 49.625 32.75 51 32.75C53.25 32.75 54.8333 33.75 55.75 35.75ZM53.75 59.25C53.5417 63.5833 53.3333 67.8542 53.125 72.0625C52.9167 76.2708 52.8125 80.0625 52.8125 83.4375C52.8125 86.8125 52.9167 90.3125 53.125 93.9375C53.3333 97.5208 53.3333 99.5833 53.125 100.125C52.9583 100.625 52.7083 101.042 52.375 101.375C51.6667 102.083 50.8958 102.438 50.0625 102.438C49.2292 102.438 48.4375 102.125 47.6875 101.5C46.9792 100.875 46.7083 99.6042 46.875 97.6875C47.3333 92.3958 47.5625 87.0417 47.5625 81.625C47.5625 76.2083 47.4792 71.8333 47.3125 68.5C47.1875 65.125 47.0833 62.5833 47 60.875C46.9583 59.1667 47.0417 58.0625 47.25 57.5625C47.4583 57.0625 47.75 56.6667 48.125 56.375C48.8333 55.7083 49.625 55.375 50.5 55.375C51.375 55.375 52.1458 55.6875 52.8125 56.3125C53.4792 56.9375 53.7917 57.9167 53.75 59.25ZM82.1875 0.9375C83.3542 0.9375 90.8542 0.770833 104.688 0.4375C106.604 0.4375 107.917 1.16667 108.625 2.625C108.792 3.04167 108.875 3.52083 108.875 4.0625C108.875 4.60417 108.562 5.16667 107.938 5.75C107.312 6.29167 106.146 6.54167 104.438 6.5C102.729 6.45833 101.062 6.39583 99.4375 6.3125C97.8542 6.22917 96.375 6.16667 95 6.125C92.5417 6.04167 90.4375 6.02083 88.6875 6.0625C88.3542 15.6458 88.1875 26.0417 88.1875 37.25C88.1875 49.25 88.1875 57.4792 88.1875 61.9375C88.2292 66.3542 88.2917 70.5833 88.375 74.625C88.5 84.9583 88.625 92.625 88.75 97.625C88.7917 99.0417 88.4583 100.104 87.75 100.812C87.0833 101.479 86.3333 101.812 85.5 101.812C84.7083 101.812 83.9167 101.5 83.125 100.875C82.375 100.208 82 99.2292 82 97.9375L81.9375 89.75L82.5625 30.0625C82.5625 18.9375 82.4167 10.9375 82.125 6.0625C79.9167 6.02083 77.2917 6.10417 74.25 6.3125C70.6667 6.5625 68.0625 6.75 66.4375 6.875C64.8542 6.95833 63.7292 6.6875 63.0625 6.0625C62.3958 5.4375 62.0625 4.72917 62.0625 3.9375C62.0625 3.10417 62.3958 2.29167 63.0625 1.5C63.7292 0.708333 64.7917 0.354167 66.25 0.4375C67.75 0.479167 69.0417 0.520833 70.125 0.5625C71.2083 0.604167 72.1458 0.645833 72.9375 0.6875C73.7708 0.729167 74.5 0.770833 75.125 0.8125C75.75 0.854167 76.375 0.895833 77 0.9375C77.6667 0.9375 78.4167 0.9375 79.25 0.9375H82.1875ZM122.188 86.75C122.188 94.1667 124.958 97.875 130.5 97.875C133.667 97.875 136.375 96.2917 138.625 93.125C140.625 90.2917 141.812 86.9167 142.188 83C142.312 79.3333 142.375 75.9583 142.375 72.875C142.375 68.4583 142.333 64 142.25 59.5C142.167 58.125 142.521 57.0833 143.312 56.375C144.104 55.6667 144.917 55.3125 145.75 55.3125C146.625 55.3125 147.396 55.6458 148.062 56.3125C148.729 56.9375 148.979 57.875 148.812 59.125C148.062 67.1667 147.688 74.9375 147.688 82.4375C147.688 89.8958 147.792 94.0625 148 94.9375C148.208 95.8125 148.458 96.5417 148.75 97.125C149.417 98.625 149.75 99.7292 149.75 100.438C149.75 101.104 149.479 101.729 148.938 102.312C148.438 102.938 147.729 103.25 146.812 103.25C143.688 103.25 142.167 100.396 142.25 94.6875C140.833 97.2708 139.521 99.0625 138.312 100.062C134.188 103.479 129.667 104.292 124.75 102.5C119.25 100.417 116.5 94.9792 116.5 86.1875C116.5 81.6042 116.458 77.0833 116.375 72.625C116.333 68.1667 116.333 63.7917 116.375 59.5C116.417 58.125 116.792 57.1042 117.5 56.4375C118.25 55.7292 119.042 55.375 119.875 55.375C120.75 55.375 121.542 55.6875 122.25 56.3125C122.958 56.9375 123.208 58 123 59.5C122.833 61 122.688 62.9583 122.562 65.375C122.479 67.7917 122.417 70.2708 122.375 72.8125C122.25 77.0625 122.188 81.7083 122.188 86.75ZM165.188 42.75C165.188 41.2917 165.542 40.2083 166.25 39.5C166.958 38.7917 167.729 38.4375 168.562 38.4375C169.396 38.4375 170.146 38.7917 170.812 39.5C171.479 40.2083 171.729 41.2917 171.562 42.75C171.188 46.625 170.958 51.125 170.875 56.25C174.292 56.25 176.875 56.1458 178.625 55.9375C180.375 55.7292 181.625 55.625 182.375 55.625C185.208 55.5417 186.625 56.5833 186.625 58.75C186.625 60 185.896 60.875 184.438 61.375C183.938 61.5417 183.354 61.6042 182.688 61.5625C182.021 61.5208 181.292 61.5 180.5 61.5C179.75 61.4583 179 61.4375 178.25 61.4375C176.958 61.4375 175.708 61.4375 174.5 61.4375C173.333 61.4375 172.292 61.4583 171.375 61.5C171.208 61.5 171.021 61.5 170.812 61.5C170.812 61.5833 170.812 61.6458 170.812 61.6875C170.812 78.9375 171.062 88.6667 171.562 90.875C172.062 93.0833 172.604 94.6667 173.188 95.625C174.229 97.2917 175.562 98.125 177.188 98.125C179.812 98.125 181.583 96.8333 182.5 94.25C182.875 92.1667 183.938 91.125 185.688 91.125C186.312 91.125 186.854 91.3958 187.312 91.9375C187.812 92.4375 188.062 93.1875 188.062 94.1875C188.062 95.1875 187.75 96.2708 187.125 97.4375C186.5 98.6042 185.667 99.625 184.625 100.5C182.333 102.417 179.771 103.375 176.938 103.375C171.771 103.375 168.208 100.521 166.25 94.8125C165.542 92.7292 165.188 90.1667 165.188 87.125V61.9375C164.312 61.9792 163.354 62.0417 162.312 62.125C161.021 62.1667 160.042 61.8542 159.375 61.1875C158.75 60.4792 158.438 59.75 158.438 59C158.438 58.2083 158.771 57.5208 159.438 56.9375C160.104 56.3125 161.104 56 162.438 56L165.188 56.0625V42.75ZM207.25 35.75C207.542 36.4167 207.646 37.2292 207.562 38.1875C207.521 39.1042 207.312 39.8958 206.938 40.5625C206.562 41.2292 206.125 41.7708 205.625 42.1875C204.667 42.9375 203.688 43.3125 202.688 43.3125C201.688 43.3125 200.896 43.2083 200.312 43C199.729 42.75 199.208 42.4167 198.75 42C197.667 41 197.125 39.6875 197.125 38.0625C197.125 36.4375 197.542 35.2708 198.375 34.5625C199.75 33.3542 201.125 32.75 202.5 32.75C204.75 32.75 206.333 33.75 207.25 35.75ZM205.25 59.25C205.042 63.5833 204.833 67.8542 204.625 72.0625C204.417 76.2708 204.312 80.0625 204.312 83.4375C204.312 86.8125 204.417 90.3125 204.625 93.9375C204.833 97.5208 204.833 99.5833 204.625 100.125C204.458 100.625 204.208 101.042 203.875 101.375C203.167 102.083 202.396 102.438 201.562 102.438C200.729 102.438 199.938 102.125 199.188 101.5C198.479 100.875 198.208 99.6042 198.375 97.6875C198.833 92.3958 199.062 87.0417 199.062 81.625C199.062 76.2083 198.979 71.8333 198.812 68.5C198.688 65.125 198.583 62.5833 198.5 60.875C198.458 59.1667 198.542 58.0625 198.75 57.5625C198.958 57.0625 199.25 56.6667 199.625 56.375C200.333 55.7083 201.125 55.375 202 55.375C202.875 55.375 203.646 55.6875 204.312 56.3125C204.979 56.9375 205.292 57.9167 205.25 59.25ZM223.5 86.1875C225.417 86.1875 226.271 87.9167 226.062 91.375C225.896 93.4167 226.688 95.1667 228.438 96.625C230.104 98.0417 232.25 98.75 234.875 98.75C237.542 98.75 239.688 98.0208 241.312 96.5625C242.938 95.1042 243.75 93.2917 243.75 91.125C243.75 88.9167 243.208 87.2083 242.125 86C241.042 84.75 239.688 83.6458 238.062 82.6875C236.438 81.6875 234.688 80.75 232.812 79.875C230.938 78.9583 229.188 77.9167 227.562 76.75C223.771 73.9583 221.875 70.5208 221.875 66.4375C221.875 62.8958 223.083 59.9583 225.5 57.625C228.083 55.0833 231.438 53.8125 235.562 53.8125C239.104 53.8125 242.062 54.8333 244.438 56.875C246.979 59.0417 248.25 61.8542 248.25 65.3125C248.5 67.0208 248.271 68.2917 247.562 69.125C246.854 69.9167 246.021 70.3125 245.062 70.3125C244.146 70.3125 243.396 69.8958 242.812 69.0625C242.271 68.2292 242.021 67.25 242.062 66.125C242.146 65 242.083 64.0208 241.875 63.1875C241.708 62.3125 241.354 61.5208 240.812 60.8125C239.604 59.2292 237.646 58.4375 234.938 58.4375C232.771 58.4375 231.188 58.9583 230.188 60C228.479 61.7917 227.625 63.6667 227.625 65.625C227.625 67.5833 228.167 69.2083 229.25 70.5C230.333 71.75 231.688 72.8958 233.312 73.9375C234.938 74.9375 236.688 75.8958 238.562 76.8125C240.438 77.7292 242.188 78.7708 243.812 79.9375C247.604 82.6458 249.5 86.0417 249.5 90.125C249.5 94.0417 248.208 97.2083 245.625 99.625C242.917 102.167 239.146 103.438 234.312 103.438C230.146 103.438 226.667 102.208 223.875 99.75C221 97.2917 219.688 94.2083 219.938 90.5C220.104 87.625 221.292 86.1875 223.5 86.1875ZM264.188 42.75C264.188 41.2917 264.542 40.2083 265.25 39.5C265.958 38.7917 266.729 38.4375 267.562 38.4375C268.396 38.4375 269.146 38.7917 269.812 39.5C270.479 40.2083 270.729 41.2917 270.562 42.75C270.188 46.625 269.958 51.125 269.875 56.25C273.292 56.25 275.875 56.1458 277.625 55.9375C279.375 55.7292 280.625 55.625 281.375 55.625C284.208 55.5417 285.625 56.5833 285.625 58.75C285.625 60 284.896 60.875 283.438 61.375C282.938 61.5417 282.354 61.6042 281.688 61.5625C281.021 61.5208 280.292 61.5 279.5 61.5C278.75 61.4583 278 61.4375 277.25 61.4375C275.958 61.4375 274.708 61.4375 273.5 61.4375C272.333 61.4375 271.292 61.4583 270.375 61.5C270.208 61.5 270.021 61.5 269.812 61.5C269.812 61.5833 269.812 61.6458 269.812 61.6875C269.812 78.9375 270.062 88.6667 270.562 90.875C271.062 93.0833 271.604 94.6667 272.188 95.625C273.229 97.2917 274.562 98.125 276.188 98.125C278.812 98.125 280.583 96.8333 281.5 94.25C281.875 92.1667 282.938 91.125 284.688 91.125C285.312 91.125 285.854 91.3958 286.312 91.9375C286.812 92.4375 287.062 93.1875 287.062 94.1875C287.062 95.1875 286.75 96.2708 286.125 97.4375C285.5 98.6042 284.667 99.625 283.625 100.5C281.333 102.417 278.771 103.375 275.938 103.375C270.771 103.375 267.208 100.521 265.25 94.8125C264.542 92.7292 264.188 90.1667 264.188 87.125V61.9375C263.312 61.9792 262.354 62.0417 261.312 62.125C260.021 62.1667 259.042 61.8542 258.375 61.1875C257.75 60.4792 257.438 59.75 257.438 59C257.438 58.2083 257.771 57.5208 258.438 56.9375C259.104 56.3125 260.104 56 261.438 56L264.188 56.0625V42.75ZM319.375 89.1875C319.333 86.8958 319.333 84.0833 319.375 80.75C317.583 80.125 315.312 79.8125 312.562 79.8125C308.854 79.8125 305.812 80.7083 303.438 82.5C302.271 83.4167 301.333 84.5417 300.625 85.875C299.917 87.1667 299.562 88.8542 299.562 90.9375C299.562 92.9792 300.271 94.6875 301.688 96.0625C303.104 97.4375 305.188 98.125 307.938 98.125C310.688 98.125 313.75 96.25 317.125 92.5C318.083 91.4583 318.833 90.3542 319.375 89.1875ZM323.375 103.312C320.875 103.312 319.625 101.417 319.625 97.625C319.625 97.375 319.604 96.6667 319.562 95.5C319.188 95.9583 318.771 96.4583 318.312 97C314.562 101.25 310.479 103.375 306.062 103.375C302.521 103.375 299.583 102.25 297.25 100C294.833 97.6667 293.625 94.6875 293.625 91.0625C293.625 86.0208 295.583 81.9583 299.5 78.875C301.25 77.5 303.208 76.4583 305.375 75.75C307.583 75.0417 310.042 74.6875 312.75 74.6875C315 74.6875 317.208 75.0625 319.375 75.8125V69.1875C319.375 65.5208 318.604 62.7708 317.062 60.9375C315.562 59.1042 314 58.1875 312.375 58.1875C310.75 58.1875 309.417 58.3958 308.375 58.8125C307.375 59.2292 306.479 59.8333 305.688 60.625C303.938 62.3333 302.938 64.4583 302.688 67C302.812 68.3333 302.542 69.2708 301.875 69.8125C301.208 70.3125 300.479 70.5625 299.688 70.5625C297.438 70.5625 296.354 69.0625 296.438 66.0625C296.521 62.9375 298.104 60.0625 301.188 57.4375C304.354 54.7292 307.896 53.375 311.812 53.375C317.646 53.375 321.583 56.2708 323.625 62.0625C324.333 64.1458 324.688 66.4375 324.688 68.9375V75.375L324.625 85.875V91.4375C324.625 93.9375 324.917 95.9583 325.5 97.5C326.125 99.0417 326.438 100.146 326.438 100.812C326.438 101.438 326.125 102 325.5 102.5C324.875 103.042 324.167 103.312 323.375 103.312Z" fill="#351959"/>
</svg>
