<svg width="327" height="106" viewBox="0 0 327 106" fill="none" xmlns="http://www.w3.org/2000/svg">
<path d="M27.4375 75C27.5208 67.75 26 62.7917 22.875 60.125C21.625 59 20.1042 58.4375 18.3125 58.4375C16.5208 58.4375 15.0417 58.7708 13.875 59.4375C12.7083 60.1042 11.6667 61 10.75 62.125C9.875 63.25 9.125 64.5417 8.5 66C7.91667 67.4167 7.4375 68.875 7.0625 70.375C6.6875 71.9583 6.41667 73.5208 6.25 75.0625L14.8125 75.4375C20.3958 75.4375 24.6042 75.2917 27.4375 75ZM6 80.4375C6.08333 86.1875 7.125 90.5833 9.125 93.625C11.2917 96.875 14.3542 98.5 18.3125 98.5C21.9375 98.5 24.5833 96.7083 26.25 93.125C27.2917 90.7917 28.5833 89.625 30.125 89.625C30.8333 89.625 31.4167 89.8542 31.875 90.3125C32.375 90.7708 32.6042 91.5833 32.5625 92.75C32.5208 93.875 32.1042 95.1042 31.3125 96.4375C30.5625 97.7708 29.5 98.9583 28.125 100C25.125 102.333 21.5208 103.5 17.3125 103.5C12.7708 103.5 8.85417 101.562 5.5625 97.6875C2.10417 93.6042 0.375 88.75 0.375 83.125C0.375 77.5 0.854167 72.9375 1.8125 69.4375C2.8125 65.8958 4.125 62.9583 5.75 60.625C8.91667 55.9167 12.875 53.5625 17.625 53.5625C23.7083 53.5625 27.9792 55.9583 30.4375 60.75C32.1458 64.0833 33.0625 68.9792 33.1875 75.4375C33.2292 77.2708 32.9375 78.5 32.3125 79.125C31.6875 79.75 30.4167 80.0625 28.5 80.0625L6 80.4375ZM55.75 35.75C56.0417 36.4167 56.1458 37.2292 56.0625 38.1875C56.0208 39.1042 55.8125 39.8958 55.4375 40.5625C55.0625 41.2292 54.625 41.7708 54.125 42.1875C53.1667 42.9375 52.1875 43.3125 51.1875 43.3125C50.1875 43.3125 49.3958 43.2083 48.8125 43C48.2292 42.75 47.7083 42.4167 47.25 42C46.1667 41 45.625 39.6875 45.625 38.0625C45.625 36.4375 46.0417 35.2708 46.875 34.5625C48.25 33.3542 49.625 32.75 51 32.75C53.25 32.75 54.8333 33.75 55.75 35.75ZM53.75 59.25C53.5417 63.5833 53.3333 67.8542 53.125 72.0625C52.9167 76.2708 52.8125 80.0625 52.8125 83.4375C52.8125 86.8125 52.9167 90.3125 53.125 93.9375C53.3333 97.5208 53.3333 99.5833 53.125 100.125C52.9583 100.625 52.7083 101.042 52.375 101.375C51.6667 102.083 50.8958 102.438 50.0625 102.438C49.2292 102.438 48.4375 102.125 47.6875 101.5C46.9792 100.875 46.7083 99.6042 46.875 97.6875C47.3333 92.3958 47.5625 87.0417 47.5625 81.625C47.5625 76.2083 47.4792 71.8333 47.3125 68.5C47.1875 65.125 47.0833 62.5833 47 60.875C46.9583 59.1667 47.0417 58.0625 47.25 57.5625C47.4583 57.0625 47.75 56.6667 48.125 56.375C48.8333 55.7083 49.625 55.375 50.5 55.375C51.375 55.375 52.1458 55.6875 52.8125 56.3125C53.4792 56.9375 53.7917 57.9167 53.75 59.25ZM82.1875 0.9375C83.3542 0.9375 90.8542 0.770833 104.688 0.4375C106.604 0.4375 107.917 1.16667 108.625 2.625C108.792 3.04167 108.875 3.52083 108.875 4.0625C108.875 4.60417 108.562 5.16667 107.938 5.75C107.312 6.29167 106.146 6.54167 104.438 6.5C102.729 6.45833 101.062 6.39583 99.4375 6.3125C97.8542 6.22917 96.375 6.16667 95 6.125C92.5417 6.04167 90.4375 6.02083 88.6875 6.0625C88.3542 15.6458 88.1875 26.0417 88.1875 37.25C88.1875 49.25 88.1875 57.4792 88.1875 61.9375C88.2292 66.3542 88.2917 70.5833 88.375 74.625C88.5 84.9583 88.625 92.625 88.75 97.625C88.7917 99.0417 88.4583 100.104 87.75 100.812C87.0833 101.479 86.3333 101.812 85.5 101.812C84.7083 101.812 83.9167 101.5 83.125 100.875C82.375 100.208 82 99.2292 82 97.9375L81.9375 89.75L82.5625 30.0625C82.5625 18.9375 82.4167 10.9375 82.125 6.0625C79.9167 6.02083 77.2917 6.10417 74.25 6.3125C70.6667 6.5625 68.0625 6.75 66.4375 6.875C64.8542 6.95833 63.7292 6.6875 63.0625 6.0625C62.3958 5.4375 62.0625 4.72917 62.0625 3.9375C62.0625 3.10417 62.3958 2.29167 63.0625 1.5C63.7292 0.708333 64.7917 0.354167 66.25 0.4375C67.75 0.479167 69.0417 0.520833 70.125 0.5625C71.2083 0.604167 72.1458 0.645833 72.9375 0.6875C73.7708 0.729167 74.5 0.770833 75.125 0.8125C75.75 0.854167 76.375 0.895833 77 0.9375C77.6667 0.9375 78.4167 0.9375 79.25 0.9375H82.1875ZM122.188 86.75C122.188 94.1667 124.958 97.875 130.5 97.875C133.667 97.875 136.375 96.2917 138.625 93.125C140.625 90.2917 141.812 86.9167 142.188 83C142.312 79.3333 142.375 75.9583 142.375 72.875C142.375 68.4583 142.333 64 142.25 59.5C142.167 58.125 142.521 57.0833 143.312 56.375C144.104 55.6667 144.917 55.3125 145.75 55.3125C146.625 55.3125 147.396 55.6458 148.062 56.3125C148.729 56.9375 148.979 57.875 148.812 59.125C148.062 67.1667 147.688 74.9375 147.688 82.4375C147.688 89.8958 147.792 94.0625 148 94.9375C148.208 95.8125 148.458 96.5417 148.75 97.125C149.417 98.625 149.75 99.7292 149.75 100.438C149.75 101.104 149.479 101.729 148.938 102.312C148.438 102.938 147.729 103.25 146.812 103.25C143.688 103.25 142.167 100.396 142.25 94.6875C140.833 97.2708 139.521 99.0625 138.312 100.062C134.188 103.479 129.667 104.292 124.75 102.5C119.25 100.417 116.5 94.9792 116.5 86.1875C116.5 81.6042 116.458 77.0833 116.375 72.625C116.333 68.1667 116.333 63.7917 116.375 59.5C116.417 58.125 116.792 57.1042 117.5 56.4375C118.25 55.7292 119.042 55.375 119.875 55.375C120.75 55.375 121.542 55.6875 122.25 56.3125C122.958 56.9375 123.208 58 123 59.5C122.833 61 122.688 62.9583 122.562 65.375C122.479 67.7917 122.417 70.2708 122.375 72.8125C122.25 77.0625 122.188 81.7083 122.188 86.75ZM190.062 56.9375C190.062 59.1875 188.938 60.4792 186.688 60.8125C183.938 61.3542 180.833 63.7083 177.375 67.875C173.667 72.375 171.583 76.8125 171.125 81.1875C170.958 83.1042 170.875 84.8542 170.875 86.4375C170.875 90.2292 171.042 94.2083 171.375 98.375C171.458 99.75 171.104 100.792 170.312 101.5C169.562 102.208 168.729 102.562 167.812 102.562C166.938 102.562 166.167 102.25 165.5 101.625C164.833 100.958 164.562 99.9792 164.688 98.6875C164.812 97.3542 164.917 95.8333 165 94.125C165.083 92.375 165.167 90.5417 165.25 88.625C165.333 85.375 165.375 81.75 165.375 77.75C165.375 71 165.292 66 165.125 62.75C164.958 59.4583 164.979 57.5625 165.188 57.0625C165.396 56.5625 165.667 56.1667 166 55.875C166.708 55.2083 167.479 54.875 168.312 54.875C169.188 54.875 169.958 55.1875 170.625 55.8125C171.333 56.4375 171.646 57.25 171.562 58.25C171.521 59.2083 171.438 60.1667 171.312 61.125C171.229 62.0417 171.125 63.1875 171 64.5625C170.75 66.7708 170.521 69.125 170.312 71.625C172.021 67.3333 174.458 63.375 177.625 59.75C181.167 55.7917 184.25 53.8125 186.875 53.8125C188 53.8125 188.812 54.125 189.312 54.75C189.812 55.375 190.062 56.1042 190.062 56.9375ZM206.875 35.75C207.167 36.4167 207.271 37.2292 207.188 38.1875C207.146 39.1042 206.938 39.8958 206.562 40.5625C206.188 41.2292 205.75 41.7708 205.25 42.1875C204.292 42.9375 203.312 43.3125 202.312 43.3125C201.312 43.3125 200.521 43.2083 199.938 43C199.354 42.75 198.833 42.4167 198.375 42C197.292 41 196.75 39.6875 196.75 38.0625C196.75 36.4375 197.167 35.2708 198 34.5625C199.375 33.3542 200.75 32.75 202.125 32.75C204.375 32.75 205.958 33.75 206.875 35.75ZM204.875 59.25C204.667 63.5833 204.458 67.8542 204.25 72.0625C204.042 76.2708 203.938 80.0625 203.938 83.4375C203.938 86.8125 204.042 90.3125 204.25 93.9375C204.458 97.5208 204.458 99.5833 204.25 100.125C204.083 100.625 203.833 101.042 203.5 101.375C202.792 102.083 202.021 102.438 201.188 102.438C200.354 102.438 199.562 102.125 198.812 101.5C198.104 100.875 197.833 99.6042 198 97.6875C198.458 92.3958 198.688 87.0417 198.688 81.625C198.688 76.2083 198.604 71.8333 198.438 68.5C198.312 65.125 198.208 62.5833 198.125 60.875C198.083 59.1667 198.167 58.0625 198.375 57.5625C198.583 57.0625 198.875 56.6667 199.25 56.375C199.958 55.7083 200.75 55.375 201.625 55.375C202.5 55.375 203.271 55.6875 203.938 56.3125C204.604 56.9375 204.917 57.9167 204.875 59.25ZM223.125 86.1875C225.042 86.1875 225.896 87.9167 225.688 91.375C225.521 93.4167 226.312 95.1667 228.062 96.625C229.729 98.0417 231.875 98.75 234.5 98.75C237.167 98.75 239.312 98.0208 240.938 96.5625C242.562 95.1042 243.375 93.2917 243.375 91.125C243.375 88.9167 242.833 87.2083 241.75 86C240.667 84.75 239.312 83.6458 237.688 82.6875C236.062 81.6875 234.312 80.75 232.438 79.875C230.562 78.9583 228.812 77.9167 227.188 76.75C223.396 73.9583 221.5 70.5208 221.5 66.4375C221.5 62.8958 222.708 59.9583 225.125 57.625C227.708 55.0833 231.062 53.8125 235.188 53.8125C238.729 53.8125 241.688 54.8333 244.062 56.875C246.604 59.0417 247.875 61.8542 247.875 65.3125C248.125 67.0208 247.896 68.2917 247.188 69.125C246.479 69.9167 245.646 70.3125 244.688 70.3125C243.771 70.3125 243.021 69.8958 242.438 69.0625C241.896 68.2292 241.646 67.25 241.688 66.125C241.771 65 241.708 64.0208 241.5 63.1875C241.333 62.3125 240.979 61.5208 240.438 60.8125C239.229 59.2292 237.271 58.4375 234.562 58.4375C232.396 58.4375 230.812 58.9583 229.812 60C228.104 61.7917 227.25 63.6667 227.25 65.625C227.25 67.5833 227.792 69.2083 228.875 70.5C229.958 71.75 231.312 72.8958 232.938 73.9375C234.562 74.9375 236.312 75.8958 238.188 76.8125C240.062 77.7292 241.812 78.7708 243.438 79.9375C247.229 82.6458 249.125 86.0417 249.125 90.125C249.125 94.0417 247.833 97.2083 245.25 99.625C242.542 102.167 238.771 103.438 233.938 103.438C229.771 103.438 226.292 102.208 223.5 99.75C220.625 97.2917 219.312 94.2083 219.562 90.5C219.729 87.625 220.917 86.1875 223.125 86.1875ZM263.812 42.75C263.812 41.2917 264.167 40.2083 264.875 39.5C265.583 38.7917 266.354 38.4375 267.188 38.4375C268.021 38.4375 268.771 38.7917 269.438 39.5C270.104 40.2083 270.354 41.2917 270.188 42.75C269.812 46.625 269.583 51.125 269.5 56.25C272.917 56.25 275.5 56.1458 277.25 55.9375C279 55.7292 280.25 55.625 281 55.625C283.833 55.5417 285.25 56.5833 285.25 58.75C285.25 60 284.521 60.875 283.062 61.375C282.562 61.5417 281.979 61.6042 281.312 61.5625C280.646 61.5208 279.917 61.5 279.125 61.5C278.375 61.4583 277.625 61.4375 276.875 61.4375C275.583 61.4375 274.333 61.4375 273.125 61.4375C271.958 61.4375 270.917 61.4583 270 61.5C269.833 61.5 269.646 61.5 269.438 61.5C269.438 61.5833 269.438 61.6458 269.438 61.6875C269.438 78.9375 269.688 88.6667 270.188 90.875C270.688 93.0833 271.229 94.6667 271.812 95.625C272.854 97.2917 274.188 98.125 275.812 98.125C278.438 98.125 280.208 96.8333 281.125 94.25C281.5 92.1667 282.562 91.125 284.312 91.125C284.938 91.125 285.479 91.3958 285.938 91.9375C286.438 92.4375 286.688 93.1875 286.688 94.1875C286.688 95.1875 286.375 96.2708 285.75 97.4375C285.125 98.6042 284.292 99.625 283.25 100.5C280.958 102.417 278.396 103.375 275.562 103.375C270.396 103.375 266.833 100.521 264.875 94.8125C264.167 92.7292 263.812 90.1667 263.812 87.125V61.9375C262.938 61.9792 261.979 62.0417 260.938 62.125C259.646 62.1667 258.667 61.8542 258 61.1875C257.375 60.4792 257.062 59.75 257.062 59C257.062 58.2083 257.396 57.5208 258.062 56.9375C258.729 56.3125 259.729 56 261.062 56L263.812 56.0625V42.75ZM319 89.1875C318.958 86.8958 318.958 84.0833 319 80.75C317.208 80.125 314.938 79.8125 312.188 79.8125C308.479 79.8125 305.438 80.7083 303.062 82.5C301.896 83.4167 300.958 84.5417 300.25 85.875C299.542 87.1667 299.188 88.8542 299.188 90.9375C299.188 92.9792 299.896 94.6875 301.312 96.0625C302.729 97.4375 304.812 98.125 307.562 98.125C310.312 98.125 313.375 96.25 316.75 92.5C317.708 91.4583 318.458 90.3542 319 89.1875ZM323 103.312C320.5 103.312 319.25 101.417 319.25 97.625C319.25 97.375 319.229 96.6667 319.188 95.5C318.812 95.9583 318.396 96.4583 317.938 97C314.188 101.25 310.104 103.375 305.688 103.375C302.146 103.375 299.208 102.25 296.875 100C294.458 97.6667 293.25 94.6875 293.25 91.0625C293.25 86.0208 295.208 81.9583 299.125 78.875C300.875 77.5 302.833 76.4583 305 75.75C307.208 75.0417 309.667 74.6875 312.375 74.6875C314.625 74.6875 316.833 75.0625 319 75.8125V69.1875C319 65.5208 318.229 62.7708 316.688 60.9375C315.188 59.1042 313.625 58.1875 312 58.1875C310.375 58.1875 309.042 58.3958 308 58.8125C307 59.2292 306.104 59.8333 305.312 60.625C303.562 62.3333 302.562 64.4583 302.312 67C302.438 68.3333 302.167 69.2708 301.5 69.8125C300.833 70.3125 300.104 70.5625 299.312 70.5625C297.062 70.5625 295.979 69.0625 296.062 66.0625C296.146 62.9375 297.729 60.0625 300.812 57.4375C303.979 54.7292 307.521 53.375 311.438 53.375C317.271 53.375 321.208 56.2708 323.25 62.0625C323.958 64.1458 324.312 66.4375 324.312 68.9375V75.375L324.25 85.875V91.4375C324.25 93.9375 324.542 95.9583 325.125 97.5C325.75 99.0417 326.062 100.146 326.062 100.812C326.062 101.438 325.75 102 325.125 102.5C324.5 103.042 323.792 103.312 323 103.312Z" fill="#351959"/>
</svg>
